<svg xmlns="http://www.w3.org/2000/svg" viewBox="0 0 64 80" fill="#fff" x="0px" y="0px">
  <path
    d="M43 17C43.5523 17 44 16.5523 44 16C44 15.4477 43.5523 15 43 15H13C12.4477 15 12 15.4477 12 16C12 16.5523 12.4477 17 13 17H43Z"
    fill="black" />
  <path
    d="M44 24C44 24.5523 43.5523 25 43 25H13C12.4477 25 12 24.5523 12 24C12 23.4477 12.4477 23 13 23H43C43.5523 23 44 23.4477 44 24Z"
    fill="black" />
  <path
    d="M27 32C27 32.5523 26.5523 33 26 33H13C12.4477 33 12 32.5523 12 32C12 31.4477 12.4477 31 13 31H26C26.5523 31 27 31.4477 27 32Z"
    fill="black" />
  <path fill-rule="evenodd" clip-rule="evenodd"
    d="M50 32.3616V57C50 58.6569 48.6569 60 47 60H9C7.34315 60 6 58.6569 6 57V7C6 5.34314 7.34315 4 9 4H47C48.6569 4 50 5.34315 50 7V23.6384L53.3455 20.2929C53.736 19.9024 54.3692 19.9024 54.7597 20.2929L57.7071 23.2403C57.8946 23.4278 58 23.6822 58 23.9474C58 24.2126 57.8946 24.4669 57.7071 24.6545L50 32.3616ZM8 7C8 6.44771 8.44771 6 9 6H47C47.5523 6 48 6.44772 48 7V25.6384L32.7139 40.9245C32.6024 41.036 32.5189 41.1723 32.4701 41.3222L31.049 45.6907C30.9327 46.0484 31.0269 46.4411 31.2929 46.7071C31.5589 46.9731 31.9516 47.0673 32.3093 46.951L36.6778 45.5299C36.8277 45.4811 36.964 45.3976 37.0755 45.2861L48 34.3616V57C48 57.5523 47.5523 58 47 58H9C8.44772 58 8 57.5523 8 57V7ZM34.2978 42.1691L54.0526 22.4142L55.5858 23.9474L35.8309 43.7022L33.5586 44.4414L34.2978 42.1691Z"
    fill="#fff" />
</svg>
