<svg xmlns="http://www.w3.org/2000/svg" xmlns:xlink="http://www.w3.org/1999/xlink" version="1.1" x="0px" y="0px"
    viewBox="0 0 100 125" style="enable-background:new 0 0 100 100;" xml:space="preserve">
    <g>
        <path fill="#000"
            d="M87.5,8.15c-8.78,36.99-42.08,63.5-80.45,63.5c-0.55,0-1,0.45-1,1s0.45,1,1,1c39.08,0,73.03-26.86,82.25-64.42l-0.61-2.27   L87.5,8.15z" />
        <path fill="#000"
            d="M90.75,93.97h-2.31V34.83c0-0.55-0.45-1-1-1s-1,0.45-1,1v59.14H73.35V55.34c0-0.55-0.45-1-1-1s-1,0.45-1,1v38.62H58.27   V66.13c0-0.55-0.45-1-1-1s-1,0.45-1,1v27.84H43.19V72.79c0-0.55-0.45-1-1-1s-1,0.45-1,1v21.18H28.1V76.7c0-0.55-0.45-1-1-1   s-1,0.45-1,1v17.27H13.02V78.49c0-0.55-0.45-1-1-1s-1,0.45-1,1v15.48H7.06c-0.55,0-1,0.45-1,1s0.45,1,1,1h83.69c0.55,0,1-0.45,1-1   S91.3,93.97,90.75,93.97z" />
        <path fill="#000"
            d="M93.91,18.73L89.73,3.1L78.29,14.53c-0.39,0.39-0.39,1.02,0,1.41c0.39,0.39,1.02,0.39,1.41,0l7.81-7.8   c0.26-1.1,0.5-2.2,0.72-3.31c0.11-0.54,0.63-0.9,1.17-0.79c0.54,0.11,0.9,0.63,0.79,1.17c-0.26,1.35-0.56,2.68-0.89,4.01   l2.68,10.02c0.12,0.45,0.52,0.74,0.97,0.74c0.09,0,0.17-0.01,0.26-0.03C93.74,19.81,94.05,19.26,93.91,18.73z" />
    </g>
</svg>
